HIERARCHY
ROOT Hips
{
  OFFSET 0.0000 0.0000 0.0000
  CHANNELS 6 Xposition Yposition Zposition Zrotation Xrotation Yrotation
  JOINT LeftHip
  {
    OFFSET 5.5000 0.0000 -0.0000
    CHANNELS 3 Zrotation Xrotation Yrotation
    JOINT LeftKnee
    {
      OFFSET 0.0000 -17.5000 0.0000
      CHANNELS 3 Zrotation Xrotation Yrotation
      JOINT LeftAnkle
      {
        OFFSET 0.0000 -17.0000 -0.0000
        CHANNELS 3 Zrotation Xrotation Yrotation
        End Site
        {
            OFFSET 0.0000 -4.7000 -2.0000
        }
      }
    }
  }
  JOINT RightHip
  {
    OFFSET -5.5000 0.0000 0.0000
    CHANNELS 3 Zrotation Xrotation Yrotation
    JOINT RightKnee
    {
      OFFSET 0.0000 -17.5000 0.0000
      CHANNELS 3 Zrotation Xrotation Yrotation
      JOINT RightAnkle
      {
        OFFSET -0.0000 -17.0000 0.0000
        CHANNELS 3 Zrotation Xrotation Yrotation
        End Site
        {
            OFFSET 0.0000 -4.7000 -2.0000
        }
      }
    }
  }
  JOINT Chest
  {
    OFFSET -0.0000 3.0000 -1.0000
    CHANNELS 3 Zrotation Xrotation Yrotation
    JOINT LeftCollar
    {
      OFFSET -0.0000 18.0000 1.0000
      CHANNELS 3 Zrotation Xrotation Yrotation
      JOINT LeftShoulder
      {
        OFFSET 6.5000 0.0000 0.0000
        CHANNELS 3 Zrotation Xrotation Yrotation
        JOINT LeftElbow
        {
          OFFSET 0.0000 -11.0000 0.0000
          CHANNELS 3 Zrotation Xrotation Yrotation
          JOINT LeftWrist
          {
            OFFSET 0.0000 -10.5000 -0.0000
            CHANNELS 3 Zrotation Xrotation Yrotation
            End Site
            {
                OFFSET -0.0000 -6.0000 -0.0000
            }
          }
        }
      }
    }
    JOINT RightCollar
    {
      OFFSET -0.0000 18.0000 1.0000
      CHANNELS 3 Zrotation Xrotation Yrotation
      JOINT RightShoulder
      {
        OFFSET -6.5000 -0.0000 0.0000
        CHANNELS 3 Zrotation Xrotation Yrotation
        JOINT RightElbow
        {
          OFFSET 0.0000 -11.0000 0.0000
          CHANNELS 3 Zrotation Xrotation Yrotation
          JOINT RightWrist
          {
            OFFSET 0.0000 -10.5000 0.0000
            CHANNELS 3 Zrotation Xrotation Yrotation
            End Site
            {
                OFFSET 0.0000 -6.0000 0.0000
            }
          }
        }
      }
    }
    JOINT Neck
    {
      OFFSET -0.0000 18.0000 1.0000
      CHANNELS 3 Zrotation Xrotation Yrotation
      JOINT Head
      {
        OFFSET -0.0000 3.0000 0.0000
        CHANNELS 3 Zrotation Xrotation Yrotation
        End Site
        {
            OFFSET 0.0000 7.0000 0.0000
        }
      }
    }
  }
}
MOTION
Frames:	21
Frame Time:	0.033333
-0.6309 39.1201 -0.4659 0.01 0.02 0.41 -0.73 -9.25 -0.51 -0.00 23.58 0.02 1.10 -11.48 0.29 2.29 -9.32 0.22 0.00 23.60 -0.03 -2.09 -11.68 -0.76 0.05 6.09 -0.08 0.00 0.00 0.00 10.54 -9.77 -2.38 -0.00 -9.59 0.91 -11.96 0.61 -4.82 0.00 0.00 0.00 -9.70 -9.71 2.36 0.00 -8.87 -0.85 10.60 0.07 7.37 0.00 0.00 0.00 0.42 -8.95 -0.01 
-0.6309 39.1201 -0.4659 0.01 0.02 0.41 -0.73 -9.25 -0.51 -0.00 23.58 0.02 1.10 -11.48 0.29 2.29 -9.32 0.22 0.00 23.60 -0.03 -2.09 -11.68 -0.76 0.05 6.09 -0.08 0.00 0.00 0.00 10.54 -9.80 -2.37 0.00 -9.61 0.92 -11.96 0.66 -4.83 0.00 0.00 0.00 -9.70 -9.75 2.36 -0.00 -8.90 -0.85 10.60 0.13 7.37 0.00 0.00 0.00 0.42 -9.00 -0.01 
-0.6309 39.1201 -0.4659 0.01 0.02 0.41 -0.73 -9.25 -0.51 0.00 23.58 0.02 1.10 -11.48 0.29 2.29 -9.32 0.22 0.00 23.60 -0.03 -2.09 -11.68 -0.76 0.05 6.08 -0.08 0.00 0.00 0.00 10.55 -9.84 -2.36 -0.00 -9.61 0.92 -11.97 0.70 -4.84 0.00 0.00 0.00 -9.70 -9.79 2.35 -0.00 -8.91 -0.85 10.61 0.18 7.37 0.00 0.00 0.00 0.42 -9.05 -0.01 
-0.6309 39.1201 -0.4659 0.01 0.02 0.41 -0.73 -9.25 -0.51 -0.00 23.58 0.02 1.10 -11.48 0.29 2.29 -9.32 0.22 0.00 23.60 -0.03 -2.09 -11.68 -0.76 0.05 6.08 -0.08 0.00 0.00 0.00 10.55 -9.87 -2.36 -0.00 -9.61 0.92 -11.97 0.71 -4.86 0.00 0.00 0.00 -9.70 -9.82 2.35 0.00 -8.91 -0.85 10.60 0.20 7.37 0.00 0.00 0.00 0.42 -9.07 -0.01 
-0.6309 39.1201 -0.4659 0.01 0.02 0.41 -0.73 -9.25 -0.51 -0.00 23.58 0.02 1.10 -11.48 0.29 2.29 -9.32 0.22 0.00 23.60 -0.03 -2.09 -11.68 -0.76 0.05 6.08 -0.08 0.00 0.00 0.00 10.51 -9.84 -2.37 0.00 -9.60 0.92 -11.94 0.67 -4.88 0.00 0.00 0.00 -9.73 -9.80 2.35 -0.00 -8.87 -0.84 10.62 0.12 7.37 0.00 0.00 0.00 0.42 -9.03 -0.01 
-0.6309 39.1201 -0.4659 0.01 0.02 0.41 -0.73 -9.25 -0.51 -0.00 23.58 0.02 1.10 -11.48 0.29 2.29 -9.32 0.22 0.00 23.60 -0.03 -2.09 -11.68 -0.76 0.05 6.08 -0.08 0.00 0.00 0.00 10.47 -9.82 -2.38 0.00 -9.60 0.92 -11.92 0.63 -4.90 0.00 0.00 0.00 -9.77 -9.77 2.35 0.00 -8.84 -0.84 10.63 0.06 7.38 0.00 0.00 0.00 0.42 -8.99 -0.01 
-0.6309 39.1201 -0.4659 0.01 0.02 0.41 -0.73 -9.25 -0.51 -0.00 23.58 0.02 1.10 -11.48 0.29 2.29 -9.32 0.22 0.00 23.60 -0.03 -2.09 -11.68 -0.76 0.05 6.08 -0.08 0.00 0.00 0.00 10.45 -9.79 -2.39 -0.00 -9.62 0.92 -11.90 0.61 -4.92 0.00 0.00 0.00 -9.79 -9.75 2.35 -0.00 -8.83 -0.83 10.64 0.02 7.39 0.00 0.00 0.00 0.42 -8.96 -0.01 
-0.6309 39.1200 -0.4659 0.01 0.02 0.41 -0.73 -9.25 -0.51 -0.00 23.58 0.02 1.10 -11.48 0.29 2.29 -9.32 0.22 0.00 23.60 -0.03 -2.09 -11.68 -0.76 0.05 6.08 -0.08 0.00 0.00 0.00 10.43 -9.77 -2.40 0.00 -9.64 0.93 -11.90 0.60 -4.93 0.00 0.00 0.00 -9.81 -9.73 2.34 0.00 -8.82 -0.83 10.65 -0.00 7.40 0.00 0.00 0.00 0.40 -8.95 -0.01 
-0.6323 39.1202 -0.4679 0.01 0.02 0.41 -0.73 -9.25 -0.51 -0.00 23.58 0.02 1.10 -11.47 0.29 2.29 -9.32 0.22 0.00 23.60 -0.03 -2.09 -11.68 -0.76 0.05 6.09 -0.08 0.00 0.00 0.00 10.41 -9.76 -2.40 0.00 -9.66 0.93 -11.90 0.59 -4.94 0.00 0.00 0.00 -9.82 -9.73 2.35 0.00 -8.82 -0.83 10.63 -0.00 7.41 0.00 0.00 0.00 0.37 -8.94 -0.02 
-0.6350 39.1205 -0.4714 0.01 0.02 0.41 -0.73 -9.25 -0.51 -0.00 23.58 0.02 1.09 -11.46 0.29 2.30 -9.33 0.22 0.00 23.60 -0.03 -2.10 -11.67 -0.76 0.05 6.09 -0.08 0.00 0.00 0.00 10.40 -9.76 -2.40 0.00 -9.68 0.93 -11.91 0.59 -4.95 0.00 0.00 0.00 -9.83 -9.72 2.35 0.00 -8.81 -0.83 10.61 -0.01 7.44 0.00 0.00 0.00 0.35 -8.94 -0.02 
-0.6377 39.1207 -0.4750 0.02 0.02 0.41 -0.73 -9.26 -0.51 0.00 23.57 0.02 1.09 -11.45 0.29 2.30 -9.34 0.22 -0.00 23.60 -0.03 -2.10 -11.67 -0.76 0.05 6.09 -0.08 0.00 0.00 0.00 10.40 -9.76 -2.40 -0.00 -9.70 0.93 -11.91 0.60 -4.96 0.00 0.00 0.00 -9.84 -9.72 2.35 0.00 -8.81 -0.83 10.59 0.00 7.46 0.00 0.00 0.00 0.33 -8.94 -0.02 
-0.6396 39.1210 -0.4775 0.02 0.02 0.41 -0.72 -9.26 -0.51 0.00 23.57 0.02 1.08 -11.45 0.29 2.30 -9.34 0.22 -0.00 23.60 -0.03 -2.10 -11.66 -0.76 0.04 6.09 -0.06 0.00 0.00 0.00 10.39 -9.75 -2.34 -0.00 -9.70 0.95 -11.92 0.60 -5.05 0.00 0.00 0.00 -9.84 -9.73 2.40 -0.00 -8.81 -0.81 10.56 0.00 7.41 0.00 0.00 0.00 0.31 -8.94 0.04 
-0.6384 39.1210 -0.4775 0.02 0.02 0.41 -0.73 -9.26 -0.51 0.00 23.57 0.02 1.09 -11.45 0.29 2.30 -9.34 0.22 -0.00 23.60 -0.03 -2.10 -11.66 -0.76 0.04 6.09 -0.04 0.00 0.00 0.00 10.38 -9.74 -2.31 0.00 -9.71 0.96 -11.93 0.60 -5.09 0.00 0.00 0.00 -9.85 -9.73 2.44 -0.00 -8.80 -0.81 10.54 0.01 7.41 0.00 0.00 0.00 0.29 -8.94 0.07 
-0.6359 39.1211 -0.4775 0.02 0.02 0.41 -0.73 -9.26 -0.51 -0.00 23.56 0.02 1.09 -11.45 0.29 2.29 -9.34 0.22 0.00 23.60 -0.03 -2.10 -11.66 -0.76 0.03 6.09 -0.03 0.00 0.00 0.00 10.38 -9.74 -2.29 -0.00 -9.72 0.95 -11.93 0.60 -5.11 0.00 0.00 0.00 -9.85 -9.74 2.45 0.00 -8.79 -0.82 10.52 0.02 7.45 0.00 0.00 0.00 0.28 -8.95 0.09 
-0.6325 39.1211 -0.4775 0.02 0.02 0.41 -0.74 -9.26 -0.51 0.00 23.56 0.02 1.10 -11.45 0.29 2.29 -9.34 0.22 0.00 23.60 -0.03 -2.09 -11.66 -0.76 0.03 6.09 -0.02 0.00 0.00 0.00 10.38 -9.77 -2.28 0.00 -9.75 0.95 -11.94 0.66 -5.09 0.00 0.00 0.00 -9.85 -9.78 2.45 0.00 -8.82 -0.83 10.51 0.10 7.51 0.00 0.00 0.00 0.30 -9.00 0.09 
-0.6293 39.1212 -0.4801 0.02 0.02 0.41 -0.74 -9.26 -0.51 0.00 23.56 0.02 1.10 -11.44 0.29 2.28 -9.35 0.22 -0.00 23.60 -0.03 -2.08 -11.66 -0.76 0.02 6.08 -0.01 0.00 0.00 0.00 10.39 -9.81 -2.28 -0.00 -9.77 0.94 -11.94 0.70 -5.08 0.00 0.00 0.00 -9.86 -9.82 2.43 -0.00 -8.86 -0.84 10.50 0.17 7.57 0.00 0.00 0.00 0.33 -9.05 0.09 
-0.6275 39.1212 -0.4842 0.02 0.02 0.41 -0.74 -9.27 -0.51 0.00 23.57 0.02 1.10 -11.44 0.29 2.28 -9.35 0.22 -0.00 23.60 -0.03 -2.08 -11.66 -0.76 0.02 6.08 0.00 0.00 0.00 0.00 10.39 -9.84 -2.28 0.00 -9.77 0.93 -11.95 0.72 -5.06 0.00 0.00 0.00 -9.85 -9.84 2.42 -0.00 -8.88 -0.85 10.49 0.20 7.63 0.00 0.00 0.00 0.35 -9.07 0.09 
-0.6266 39.1213 -0.4868 0.02 0.02 0.41 -0.74 -9.27 -0.51 0.00 23.57 0.02 1.11 -11.43 0.29 2.28 -9.36 0.22 0.00 23.60 -0.03 -2.08 -11.65 -0.76 0.02 6.07 0.00 0.00 0.00 0.00 10.39 -9.84 -2.29 -0.00 -9.74 0.93 -11.95 0.68 -5.04 0.00 0.00 0.00 -9.85 -9.83 2.41 0.00 -8.86 -0.85 10.48 0.17 7.69 0.00 0.00 0.00 0.37 -9.09 0.08 
-0.6262 39.1209 -0.4868 0.02 0.02 0.41 -0.75 -9.28 -0.51 -0.00 23.57 0.02 1.11 -11.44 0.29 2.28 -9.36 0.22 -0.00 23.61 -0.03 -2.08 -11.65 -0.75 0.02 6.07 -0.00 0.00 0.00 0.00 10.43 -9.82 -2.30 0.00 -9.71 0.92 -11.98 0.63 -5.02 0.00 0.00 0.00 -9.82 -9.82 2.42 -0.00 -8.81 -0.85 10.44 0.12 7.74 0.00 0.00 0.00 0.39 -9.09 0.08 
-0.6389 39.1194 -0.4898 0.02 0.02 0.41 -0.73 -9.29 -0.51 0.00 23.59 0.02 1.08 -11.44 0.28 2.30 -9.38 0.22 0.00 23.64 -0.04 -2.10 -11.66 -0.75 0.02 6.07 0.00 0.00 0.00 0.00 10.46 -9.82 -2.30 -0.00 -9.71 0.91 -12.01 0.64 -5.08 0.00 0.00 0.00 -9.79 -9.78 2.42 0.00 -8.76 -0.85 10.42 0.05 7.80 0.00 0.00 0.00 0.38 -9.09 0.07 
-0.6701 39.1134 -0.4910 0.03 0.02 0.43 -0.67 -9.33 -0.46 0.00 23.67 0.10 1.02 -11.48 0.12 2.35 -9.43 0.28 0.00 23.74 -0.01 -2.16 -11.71 -0.88 0.01 6.06 0.09 0.00 0.00 0.00 10.49 -9.86 -2.11 -0.00 -9.78 0.97 -12.06 0.82 -5.71 0.00 0.00 0.00 -9.78 -9.74 2.59 -0.00 -8.70 -0.80 10.41 -0.06 7.56 0.00 0.00 0.00 0.38 -9.05 0.26 
